PathFileType	4	(X/Y/Z)	2_1_43_p0_0-385_filt_butterworth.trc
DataRate	CameraRate	NumFrames	NumMarkers	Units	OrigDataRate	OrigDataStartFrame	OrigNumFrames
60.0	60.0	6	27	m	60.0	240	385
Frame#	Time	RHip			RKnee			RAnkle			RBigToe			RSmallToe			RHeel			LHip			LKnee			LAnkle			LBigToe			LSmallToe			LHeel			Neck			Head			Nose			RShoulder			RElbow			RWrist			RThumb			RIndex			RPinky			LShoulder			LElbow			LWrist			LThumb			LIndex			LPinky			
		X1	Y1	Z1	X2	Y2	Z2	X3	Y3	Z3	X4	Y4	Z4	X5	Y5	Z5	X6	Y6	Z6	X7	Y7	Z7	X8	Y8	Z8	X9	Y9	Z9	X10	Y10	Z10	X11	Y11	Z11	X12	Y12	Z12	X13	Y13	Z13	X14	Y14	Z14	X15	Y15	Z15	X16	Y16	Z16	X17	Y17	Z17	X18	Y18	Z18	X19	Y19	Z19	X20	Y20	Z20	X21	Y21	Z21	X22	Y22	Z22	X23	Y23	Z23	X24	Y24	Z24	X25	Y25	Z25	X26	Y26	Z26	X27	Y27	Z27	
240	4.0	0.35334672154268787	0.6480339155204228	0.9909232718565879	0.3411068294476332	0.6827436874864112	1.3843877927754662	0.29393954031700237	0.9150642536476719	1.8162433679844385	0.3029116274616252	0.6759347881119443	1.8847130400151004	0.3589596692498582	0.7690872546032834	1.904399931613925	0.2805167712163912	0.9354346772102144	1.8497011711759146	0.17375213297791114	0.619249113788401	0.9678815388241093	0.1420514891492543	0.7539665779767859	1.3894360720385346	0.10630597961244728	0.8490847143561446	1.810507890288638	0.12116816701753676	0.72079746176179	1.922422630072804	0.07480039091897397	0.6968475380694457	1.8759172691297963	0.11764226203487495	0.9417836361722078	1.8714716331498584	0.3292296523588511	0.3637631850601367	0.44129920062185657	0.329602620240308	0.19794656459333695	0.23491177635931365	0.3288775416573661	0.20670460776876254	0.405256842622835	0.47456177131107524	0.3520388442408707	0.5063867942722002	0.37563100621196893	0.1303510677070793	0.6810764729059958	0.3085413519021236	-0.14099904836696026	0.8012773683881893	0.3243065008716683	-0.2659604327883851	0.8556647753662683	0.3170808177350666	-0.2529994354766354	0.9097827706656084	0.2937941041073697	-0.17607279984049143	0.9188234906582848	0.1907684615987154	0.4055403451140274	0.4448631026281714	0.10907959339009432	0.2744421310607106	0.6295864715299274	0.29158775612342225	0.13230492697588667	0.6403962704113562	0.38730254058002844	0.11214776408387929	0.6518454771972854	0.39991039697944997	0.06212052211639023	0.6608336625874787	0.37607651249336305	0.10452322286075841	0.68917604659835
241	4.016666666666667	0.35362711869919616	0.6496957402660147	0.9898404181524147	0.34109613394113814	0.6827240090485794	1.3833062617935334	0.2939365307264987	0.915055302679358	1.816249192206212	0.30293521241766574	0.6759851665928154	1.8847977928996527	0.3587357347872481	0.7678979320917155	1.9043968419757245	0.2807403305605833	0.9368440341413619	1.849893712506428	0.17551298692366007	0.6147123974966185	0.9678245380367102	0.1421536278951	0.7537828723611986	1.388973158314191	0.10571329485894182	0.8433893941463448	1.8090694949757595	0.12209328284085784	0.7169495512154277	1.9221161815164685	0.07475087644836512	0.6967090217575423	1.875923886584721	0.1168487838460119	0.9409540146836503	1.8722716618758777	0.3285972760833107	0.36513200382147615	0.44130701331122535	0.3295565689026588	0.19782517255253906	0.23492530333021738	0.32884525738658105	0.206613816971454	0.40506459463301675	0.4745811104440973	0.3522664605688212	0.5072621397244836	0.3771630066866182	0.1306767897976479	0.6831871924576833	0.3103662788868381	-0.14301497930344614	0.801604667100816	0.3257931306670243	-0.26604667856515574	0.8569135890064483	0.31695699154649987	-0.25329278907796265	0.9096492690771082	0.29453686593565614	-0.1744026856528185	0.9172190241674816	0.19075376360725654	0.4055779764762666	0.44488932642859447	0.11045903280878953	0.27115887065996636	0.6295626747960084	0.29156862705826503	0.13198780632608123	0.6404308511725222	0.38740289876267564	0.11404108505229532	0.6517837067152178	0.39985482340104284	0.06468134754023062	0.6616731374140963	0.37581400470602266	0.10429096660372073	0.6876060013254207
242	4.033333333333333	0.353797705444964	0.6493529570190217	0.9886393094530073	0.3412976876280892	0.682352392352771	1.3818497693442613	0.29393707314797785	0.9150246866225111	1.8162413534866737	0.3029239863825567	0.675946427460499	1.884773538371432	0.3587244232566548	0.7678255144692988	1.904396828611726	0.28080811121405475	0.9379680167623005	1.8497754262830228	0.1772217136830991	0.6111268674982399	0.967144636853072	0.14242151236490014	0.7533211918412243	1.3878794152835074	0.10543980416896663	0.8407717411126776	1.8084167393600934	0.12276934390803305	0.7175288813745682	1.922111973311358	0.07472946916578439	0.6966493111544556	1.8759311081604209	0.11641539279036633	0.940586468168671	1.872590811138663	0.3285702653612379	0.3651628452442152	0.44133699615913047	0.32952144177722614	0.19761675065906542	0.23495305647755538	0.3292389582070617	0.20504287071336938	0.4045417932037898	0.47458265727755355	0.35238329633376564	0.5076018481467225	0.3782985269907499	0.13057484585723897	0.6844911568378317	0.31107033405992857	-0.1439746223475753	0.8017756450702044	0.3278792417831253	-0.2664451990728172	0.85782008707653	0.31700272129325574	-0.253429611736522	0.9100997442398736	0.2948817823748838	-0.17391076584240153	0.9165385818049767	0.1907427314009097	0.40559602712964676	0.44490630520595104	0.11129313324527121	0.27188983073867856	0.62962896613294	0.2915093700691193	0.13184333419650288	0.6404459930203965	0.3874427054654443	0.11432157974791557	0.6517516320955833	0.3997790674779554	0.06570330592764043	0.6619714843349277	0.3756975618936633	0.1044567470307317	0.6869200241975297
243	4.05	0.3544514342971695	0.6471185201970846	0.9878607720040684	0.34150132376173653	0.681963910061092	1.3807485838401914	0.2939383197671476	0.9149885034900989	1.8162312294424074	0.30290678205136473	0.675903869816609	1.8847886620377718	0.35876962107464994	0.7677637175210006	1.9044397906044854	0.2806945390612987	0.9384904423476922	1.8493873527804259	0.17833626786460535	0.6094163222880535	0.9657364589759397	0.14276921727840397	0.7527375629950678	1.3863527960277187	0.1056947219224154	0.8433397872624319	1.8090718203950535	0.1225145316381573	0.7219330495171309	1.9224148481875232	0.07472646584281932	0.6966544585398665	1.8759337551305686	0.11634682176628515	0.9405616253483471	1.8725798400468967	0.3291637819486761	0.3637361037147162	0.4414897003988993	0.32954302733329743	0.1976613212089893	0.2349217260807597	0.33032248574912504	0.2014750395167497	0.4036214979434267	0.47458627278221155	0.35242164359780964	0.5076028980219753	0.37882228363334153	0.1302203195755234	0.6849656179349883	0.3111071244432128	-0.14412086230649557	0.8018513777118303	0.32939210692850285	-0.2669574462028737	0.857856490345755	0.3170589560900291	-0.25339926260067963	0.9104947509894104	0.2950082038753743	-0.17411149538272827	0.916444621525987	0.1907316720349979	0.40559795198450466	0.4449124068602052	0.11161444434527706	0.27405972197288186	0.6296818084225009	0.2914311509174768	0.13183463855897015	0.6404477552737013	0.38743501686604537	0.11423767095059864	0.6517255825185377	0.3997838362102756	0.06589449643023215	0.6619476052878293	0.3756939984192088	0.10514899142003278	0.6867361667646132
244	4.066666666666666	0.3559258182040555	0.642951863081846	0.9874835000127271	0.34158868439896733	0.6817625298762271	1.3803364630684343	0.29393266897830655	0.9149680033277312	1.8162333637701222	0.30285868474904853	0.6757512411982016	1.884698374399394	0.3587688893716369	0.7674898802225504	1.9044622415570949	0.28062307042546164	0.938477769498816	1.8494351654940713	0.17881644862009355	0.6089390482068777	0.9640753894885947	0.14301504811302626	0.7523522851829197	1.3852398381751023	0.10626014911450121	0.8489474114049221	1.810496624076008	0.12175382771710913	0.7275945673182604	1.9228501190182592	0.07472804476752132	0.6967103757711189	1.87593172447234	0.1164168056211662	0.9406462077628261	1.8724835886699158	0.3304821112219304	0.36051170396670956	0.44186941057013013	0.32973636473310686	0.19872181707803716	0.2346716115727443	0.33178568397551167	0.19702832493123826	0.40220268756121413	0.4746083937003311	0.3524382222411907	0.5075345200233683	0.37884817012252225	0.13008441054555364	0.6849122030824109	0.31120060312336445	-0.14333663377035183	0.8017609783281522	0.32985093244600733	-0.26736985255241447	0.857159575256261	0.31702715008332844	-0.253256072230176	0.9106594075325574	0.2950418014679719	-0.1744129571515056	0.9165743454259577	0.19072546339012825	0.40558208584488153	0.44490475584374345	0.11163870448733572	0.2753769494752269	0.6297225302117933	0.29136609596252033	0.13185135872010387	0.6404428673022747	0.3873617236598046	0.11435820643089911	0.6516903356652756	0.399868958662314	0.06602945213944816	0.6618706931443695	0.37573995537499094	0.10604540008907562	0.6866741737250163
245	4.083333333333333	0.3578140107744282	0.6380518756324992	0.9873450269729297	0.3415773136573026	0.6817325122473186	1.3802524732837906	0.29391793560613194	0.9149602648229136	1.8162329929689482	0.3027085593533768	0.6752631824519505	1.8841062088810132	0.35866198378897357	0.7672233532015704	1.904277063986867	0.2807083297942835	0.9379485394678103	1.850247484113908	0.17891994002602682	0.6089245969413785	0.9629867149473783	0.14302946449108184	0.7523880836437229	1.385214081493387	0.10673364597550726	0.8536425553768116	1.8116855550232043	0.1212260750888377	0.7317834705117663	1.923176423998895	0.07473480721293659	0.6968195247303546	1.8759317405753495	0.11647351097509251	0.9407196664269794	1.8724286261072247	0.33214743998085694	0.35639213492449645	0.4423715139856913	0.3302104671554855	0.20132469659512434	0.23408050845507478	0.33290015887148056	0.19373710829192986	0.40027761359399294	0.4746465484454092	0.3524718215354855	0.5075191189861021	0.3783652129550678	0.13105064952142037	0.6844267915599702	0.31171084787846126	-0.14113333516386162	0.8012965583074075	0.3297650238728507	-0.2676353444691687	0.8561101293085255	0.3169319592450056	-0.2530801037499474	0.9106939247667676	0.2950573431103076	-0.17453722521349044	0.9166959758275809	0.19072958404045068	0.40554441294793087	0.4448878774616685	0.1115634751991178	0.27557312601951334	0.6297779257557643	0.29133273622836175	0.131816919552711	0.640433433113193	0.38717657309804	0.11430022780905955	0.6516753225212494	0.3999494781679009	0.06630523362893175	0.6618382487388104	0.37575894042023394	0.10635709315129988	0.6867129120116003
